<?xml version="1.0" encoding="iso-8859-1"?>
<!-- Generator: Adobe Illustrator 18.0.0, SVG Export Plug-In . SVG Version: 6.00 Build 0)  -->
<!DOCTYPE svg PUBLIC "-//W3C//DTD SVG 1.1//EN" "http://www.w3.org/Graphics/SVG/1.1/DTD/svg11.dtd">
<svg version="1.1" id="Capa_1" xmlns="http://www.w3.org/2000/svg" xmlns:xlink="http://www.w3.org/1999/xlink" x="0px" y="0px"
	 viewBox="0 0 121.332 121.332" style="enable-background:new 0 0 121.332 121.332;" xml:space="preserve">
<g>
	<g>
		<rect x="21.475" y="10.74" style="fill:#4A8C7A;" width="78.383" height="110.592"/>
		<rect x="21.475" y="0" style="fill:#48CEAA;" width="78.383" height="110.592"/>
		<path style="fill:#FFFFFF;" d="M99.857,111.673H27.586c-2.075,0-3.756,1.684-3.756,3.756v1.067c0,2.073,1.682,3.755,3.756,3.755
			h72.271V111.673z"/>
		<path style="opacity:0.15;" d="M23.929,114.599c-0.061,0.268-0.099,0.544-0.099,0.83v1.067c0,2.073,1.682,3.755,3.756,3.755
			h72.271v-2.728H27.586C25.798,117.523,24.308,116.271,23.929,114.599z"/>
	</g>
	<g style="opacity:0.4;">
		<path style="fill:#FFFFFF;" d="M58.778,62.928c-3.856-0.08-7.633-0.395-11.304-0.938c0.435,2.049,0.966,4.039,1.541,5.998
			c2.982,1.459,6.28,2.371,9.763,2.617V62.928z"/>
		<path style="fill:#FFFFFF;" d="M58.778,25.377v-7.678c-3.482,0.246-6.78,1.158-9.763,2.619c-0.575,1.959-1.106,3.947-1.541,5.998
			C51.146,25.773,54.922,25.457,58.778,25.377z"/>
		<path style="fill:#FFFFFF;" d="M58.778,59.166V46.041H45.652c0.088,4.121,0.451,8.148,1.084,12.041
			C50.629,58.715,54.656,59.078,58.778,59.166z"/>
		<path style="fill:#FFFFFF;" d="M45.652,42.266h13.126V29.141c-4.122,0.088-8.149,0.451-12.042,1.082
			C46.104,34.117,45.74,38.143,45.652,42.266z"/>
		<path style="fill:#FFFFFF;" d="M84.501,55.803c1.46-2.984,2.372-6.281,2.617-9.762H79.44c-0.078,3.855-0.395,7.631-0.936,11.301
			C80.552,56.908,82.542,56.379,84.501,55.803z"/>
		<path style="fill:#FFFFFF;" d="M75.68,46.041H62.554v13.125c4.122-0.088,8.149-0.451,12.042-1.084
			C75.228,54.189,75.591,50.162,75.68,46.041z"/>
		<path style="fill:#FFFFFF;" d="M79.44,42.266h7.678c-0.245-3.482-1.157-6.779-2.617-9.762c-1.959-0.576-3.949-1.107-5.997-1.541
			C79.045,34.635,79.362,38.408,79.44,42.266z"/>
		<path style="fill:#FFFFFF;" d="M77.008,23.266c0.297,1.229,0.575,2.467,0.821,3.725c1.258,0.246,2.496,0.525,3.725,0.82
			C80.228,26.119,78.7,24.592,77.008,23.266z"/>
		<path style="fill:#FFFFFF;" d="M62.554,25.377c3.856,0.08,7.632,0.396,11.303,0.94c-0.434-2.051-0.966-4.039-1.541-5.998
			c-2.982-1.461-6.279-2.373-9.762-2.619V25.377z"/>
		<path style="fill:#FFFFFF;" d="M44.324,65.041c-0.298-1.229-0.576-2.469-0.821-3.727c-1.258-0.244-2.497-0.523-3.725-0.822
			C41.104,62.186,42.631,63.715,44.324,65.041z"/>
		<path style="fill:#FFFFFF;" d="M36.831,32.504c-1.46,2.982-2.373,6.279-2.617,9.762h7.677c0.079-3.857,0.396-7.631,0.938-11.303
			C40.779,31.396,38.789,31.928,36.831,32.504z"/>
		<path style="fill:#FFFFFF;" d="M77.829,61.314c-0.246,1.258-0.524,2.498-0.821,3.727c1.692-1.326,3.22-2.855,4.546-4.549
			C80.325,60.791,79.087,61.07,77.829,61.314z"/>
		<path style="fill:#FFFFFF;" d="M62.554,29.141v13.125H75.68c-0.089-4.123-0.452-8.148-1.084-12.043
			C70.703,29.592,66.676,29.229,62.554,29.141z"/>
		<path style="fill:#FFFFFF;" d="M41.891,46.041h-7.677c0.244,3.48,1.157,6.777,2.617,9.762c1.958,0.576,3.948,1.105,5.997,1.539
			C42.286,53.672,41.97,49.896,41.891,46.041z"/>
		<path style="fill:#FFFFFF;" d="M62.554,62.928v7.678c3.482-0.246,6.779-1.158,9.762-2.617c0.575-1.959,1.107-3.949,1.541-5.998
			C70.186,62.533,66.409,62.848,62.554,62.928z"/>
		<path style="fill:#FFFFFF;" d="M43.503,26.99c0.245-1.258,0.523-2.496,0.821-3.725c-1.693,1.326-3.22,2.854-4.546,4.545
			C41.007,27.516,42.245,27.236,43.503,26.99z"/>
	</g>
	<g>
		<path style="fill:#FFFFFF;" d="M32.76,84.503c0-0.147,0.124-0.271,0.271-0.271h0.034h2.202c1.242,0,2.247,1.017,2.247,2.259
			s-1.005,2.247-2.247,2.247l-1.954,0.022v3.104c0,0.147-0.124,0.271-0.282,0.271c-0.147,0-0.271-0.124-0.271-0.271V84.503z
			 M35.267,88.206c0.937-0.011,1.705-0.779,1.705-1.716c0-0.938-0.768-1.705-1.705-1.705h-1.954v3.421H35.267z"/>
		<path style="fill:#FFFFFF;" d="M42.875,90.092h-3.602l-0.7,1.863c-0.045,0.113-0.146,0.181-0.26,0.181
			c-0.022,0-0.067-0.012-0.102-0.012c-0.135-0.056-0.214-0.226-0.158-0.361l2.744-7.328c0.045-0.102,0.158-0.169,0.271-0.169
			c0.124,0,0.237,0.067,0.271,0.169l2.744,7.328c0.057,0.136-0.011,0.306-0.146,0.361c-0.045,0-0.068,0.012-0.102,0.012
			c-0.102,0-0.214-0.067-0.259-0.181L42.875,90.092z M39.477,89.539h3.196l-1.592-4.246L39.477,89.539z"/>
		<path style="fill:#FFFFFF;" d="M45.29,90.656c0.09-0.112,0.249-0.124,0.35-0.033c0.587,0.474,1.569,1.027,2.597,1.016
			c0.688,0,1.31-0.203,1.739-0.52c0.44-0.315,0.677-0.733,0.677-1.174c0-0.452-0.214-0.79-0.644-1.084
			c-0.429-0.282-1.062-0.497-1.829-0.644h-0.022c-0.734-0.136-1.378-0.339-1.863-0.666c-0.485-0.316-0.813-0.791-0.813-1.378
			c0-0.599,0.328-1.118,0.824-1.479c0.497-0.361,1.163-0.575,1.908-0.575c1.039,0,1.818,0.508,2.439,0.914
			c0.113,0.079,0.147,0.226,0.068,0.351c-0.068,0.112-0.226,0.146-0.339,0.067c-0.621-0.406-1.298-0.836-2.168-0.836
			c-0.644,0-1.219,0.192-1.615,0.475c-0.395,0.294-0.621,0.678-0.621,1.084c0.011,0.396,0.192,0.688,0.587,0.96
			c0.395,0.271,0.982,0.463,1.694,0.599h0.022c0.791,0.146,1.491,0.372,2.01,0.723c0.52,0.339,0.87,0.857,0.87,1.49
			c0,0.632-0.361,1.196-0.892,1.581c-0.531,0.384-1.242,0.621-2.032,0.621c-1.208-0.012-2.258-0.621-2.914-1.141
			C45.222,90.916,45.211,90.758,45.29,90.656z"/>
		<path style="fill:#FFFFFF;" d="M52.707,90.656c0.09-0.112,0.249-0.124,0.35-0.033c0.587,0.474,1.569,1.027,2.597,1.016
			c0.688,0,1.31-0.203,1.739-0.52c0.44-0.315,0.677-0.733,0.677-1.174c0-0.452-0.214-0.79-0.644-1.084
			c-0.429-0.282-1.061-0.497-1.829-0.644h-0.022c-0.734-0.136-1.377-0.339-1.863-0.666c-0.485-0.316-0.813-0.791-0.813-1.378
			c0-0.599,0.328-1.118,0.824-1.479c0.497-0.361,1.163-0.575,1.908-0.575c1.039,0,1.818,0.508,2.439,0.914
			c0.113,0.079,0.147,0.226,0.068,0.351c-0.068,0.112-0.226,0.146-0.339,0.067c-0.621-0.406-1.298-0.836-2.168-0.836
			c-0.644,0-1.219,0.192-1.614,0.475c-0.396,0.294-0.621,0.678-0.621,1.084c0.011,0.396,0.192,0.688,0.587,0.96
			c0.396,0.271,0.982,0.463,1.694,0.599h0.022c0.791,0.146,1.491,0.372,2.01,0.723c0.52,0.339,0.87,0.857,0.87,1.49
			c0,0.632-0.361,1.196-0.892,1.581c-0.531,0.384-1.242,0.621-2.032,0.621c-1.208-0.012-2.258-0.621-2.914-1.141
			C52.639,90.916,52.627,90.758,52.707,90.656z"/>
		<path style="fill:#FFFFFF;" d="M60.597,84.503c0-0.147,0.124-0.271,0.271-0.271h0.034h2.202c1.242,0,2.247,1.017,2.247,2.259
			s-1.005,2.247-2.247,2.247L61.15,88.76v3.104c0,0.147-0.124,0.271-0.282,0.271c-0.147,0-0.271-0.124-0.271-0.271V84.503z
			 M63.104,88.206c0.937-0.011,1.705-0.779,1.705-1.716c0-0.938-0.768-1.705-1.705-1.705H61.15v3.421H63.104z"/>
		<path style="fill:#FFFFFF;" d="M70.645,84.119c2.112,0,3.771,1.795,3.783,4.008c-0.011,2.214-1.671,4.009-3.783,4.009
			c-2.134,0-3.805-1.795-3.816-4.009C66.839,85.914,68.511,84.119,70.645,84.119z M70.645,91.582c1.739,0,3.207-1.524,3.218-3.455
			c-0.011-1.953-1.479-3.443-3.218-3.443c-1.795,0-3.263,1.49-3.263,3.443C67.381,90.058,68.85,91.582,70.645,91.582z"/>
		<path style="fill:#FFFFFF;" d="M80.703,90.352c0-0.576-0.294-0.938-0.644-1.196c-0.35-0.249-0.768-0.373-0.915-0.396
			c-0.034-0.012-0.045-0.022-0.056-0.022h-1.92v3.127c0,0.147-0.124,0.271-0.282,0.271c-0.146,0-0.271-0.124-0.271-0.271v-7.361
			c0-0.136,0.113-0.26,0.249-0.271h0.022h0.034h2.202c1.242,0,2.247,1.005,2.247,2.259c0,0.903-0.531,1.683-1.299,2.044
			c0.034,0.022,0.068,0.033,0.113,0.056c0.52,0.294,1.062,0.87,1.062,1.762c0,0.463,0.045,0.745,0.102,0.915
			c0.045,0.135,0.102,0.181,0.113,0.191c0.124-0.011,0.26,0.057,0.305,0.181c0.034,0.147-0.034,0.305-0.181,0.361
			c-0.011,0-0.068,0.012-0.135,0.012h-0.022c-0.147,0-0.384-0.113-0.508-0.361C80.782,91.391,80.703,91.018,80.703,90.352z
			 M79.122,84.785h-1.954v3.41h1.897h0.102c0.915-0.022,1.66-0.779,1.66-1.705C80.827,85.542,80.059,84.785,79.122,84.785z"/>
		<path style="fill:#FFFFFF;" d="M85.647,84.785h-2.383c-0.146,0-0.271-0.124-0.271-0.282c0-0.147,0.125-0.271,0.271-0.271h5.307
			c0.147,0,0.271,0.124,0.271,0.271c0,0.158-0.124,0.282-0.271,0.282h-2.382v7.079c0,0.147-0.125,0.271-0.271,0.271
			c-0.147,0-0.271-0.124-0.271-0.271V84.785z"/>
	</g>
</g>
<g>
</g>
<g>
</g>
<g>
</g>
<g>
</g>
<g>
</g>
<g>
</g>
<g>
</g>
<g>
</g>
<g>
</g>
<g>
</g>
<g>
</g>
<g>
</g>
<g>
</g>
<g>
</g>
<g>
</g>
</svg>
